<svg width="102" height="53" viewBox="0 0 102 53" fill="none" xmlns="http://www.w3.org/2000/svg">
<g filter="url(#filter0_d_1_628)">
<path d="M51.425 21.4082C50.9819 20.8184 50.7699 20.1213 50.8203 19.4196V16.5364C50.8203 15.6526 51.0207 14.9809 51.4216 14.5214C51.8224 14.0619 52.511 13.8331 53.4871 13.8351C54.4044 13.8351 55.0555 14.0306 55.4405 14.4217C55.8605 14.9207 56.0648 15.5309 56.018 16.1463V16.8239H54.3772V16.1375C54.383 15.9129 54.3671 15.6882 54.3296 15.4659C54.306 15.3138 54.2234 15.1732 54.0952 15.067C53.9267 14.9525 53.7145 14.897 53.5007 14.9115C53.2759 14.897 53.0529 14.9556 52.8756 15.0758C52.7327 15.1935 52.6374 15.3477 52.6038 15.5157C52.5567 15.7511 52.5351 15.9897 52.5393 16.2285V19.7276C52.5134 20.0652 52.5858 20.403 52.7499 20.7102C52.8315 20.8141 52.9448 20.8965 53.0774 20.9483C53.2099 21.0001 53.3564 21.0192 53.5007 21.0035C53.7109 21.0184 53.9195 20.9615 54.0816 20.8451C54.2153 20.7305 54.3013 20.581 54.3262 20.4198C54.3645 20.1877 54.3816 19.9533 54.3772 19.7188V19.009H56.018V19.6572C56.0641 20.2988 55.8648 20.9356 55.4507 21.4698C55.0736 21.8981 54.4315 22.1122 53.4871 22.1122C52.5427 22.1122 51.8292 21.8834 51.425 21.4082Z" fill="#AFB1B8"/>
<path d="M58.2569 21.4376C57.8424 20.9888 57.6352 20.3347 57.6352 19.4695V16.4367C57.6352 15.5803 57.8424 14.9321 58.2569 14.4921C58.6713 14.0521 59.3644 13.8331 60.3359 13.8351C61.3007 13.8351 61.9904 14.0541 62.4048 14.4921C62.8193 14.9321 63.0299 15.5803 63.0299 16.4367V19.4695C63.0299 20.3259 62.8193 20.9829 62.398 21.4346C61.9768 21.8863 61.2906 22.1122 60.3359 22.1122C59.3813 22.1122 58.6747 21.8834 58.2569 21.4376ZM61.1003 20.7102C61.2487 20.4291 61.3163 20.1212 61.2974 19.8127V16.0994C61.3164 15.7969 61.2499 15.4949 61.1037 15.2195C61.0205 15.1134 60.9043 15.0296 60.7686 14.9777C60.6328 14.9259 60.4829 14.908 60.3359 14.9262C60.1885 14.9085 60.0383 14.9265 59.9021 14.9783C59.7659 15.0301 59.6491 15.1136 59.5648 15.2195C59.4154 15.4941 59.3477 15.7965 59.3678 16.0994V19.8303C59.3471 20.1389 59.4148 20.4471 59.5648 20.7278C59.6604 20.8224 59.7785 20.8982 59.9109 20.9502C60.0433 21.0021 60.1871 21.029 60.3326 21.029C60.478 21.029 60.6218 21.0021 60.7542 20.9502C60.8866 20.8982 61.0047 20.8224 61.1003 20.7278V20.7102Z" fill="#AFB1B8"/>
<path d="M65.0035 13.9236H66.7701L68.0984 19.5192L69.4573 13.9236H71.1763L71.3496 22.0003H70.079L69.9431 16.3871L68.6318 22.0003H67.6126L66.2537 16.3665L66.128 22.0003H64.8439L65.0035 13.9236Z" fill="#AFB1B8"/>
<path d="M73.3302 13.9236H76.0819C77.6673 13.9236 78.4599 14.688 78.4599 16.217C78.4599 17.6814 77.6254 18.4126 75.9562 18.4106H75.0186V22.0003H73.32L73.3302 13.9236ZM75.6811 17.3754C75.8489 17.3938 76.0193 17.3805 76.1806 17.3364C76.3419 17.2924 76.4902 17.2186 76.6153 17.1203C76.8101 16.8475 76.896 16.5271 76.8599 16.2082C76.8688 15.9618 76.8414 15.7154 76.7783 15.475C76.7541 15.3947 76.7116 15.3194 76.6533 15.2534C76.5949 15.1874 76.522 15.1322 76.4386 15.0908C76.2028 14.9932 75.9422 14.9488 75.6811 14.9618H75.022V17.3754H75.6811Z" fill="#AFB1B8"/>
<path d="M80.9094 13.9236H82.7337L84.6055 22.0003H83.0225L82.6522 20.138H81.0249L80.6444 22.0003H79.0376L80.9094 13.9236ZM82.4687 19.2025L81.8334 15.8123L81.1982 19.2025H82.4687Z" fill="#AFB1B8"/>
<path d="M86.1173 13.9236H87.3063L89.5825 18.5309V13.9236H90.9923V22.0003H89.861L87.5713 17.1906V22.0003H86.1139L86.1173 13.9236Z" fill="#AFB1B8"/>
<path d="M94.2945 18.9208L92.4022 13.9349H93.9955L95.1506 17.1376L96.2343 13.9349H97.7936L95.9251 18.9208V22.0003H94.2945V18.9208Z" fill="#AFB1B8"/>
<path d="M54.0477 25.5316V25.954H52.6617V29.2359H52.0807V25.954H50.6879V25.5316H54.0477Z" fill="#AFB1B8"/>
<path d="M58.3927 29.2362H57.9442C57.8987 29.2386 57.8538 29.2261 57.8185 29.201C57.7846 29.1795 57.7587 29.15 57.7438 29.116L57.3429 28.2361H55.4201L55.0192 29.116C55.0078 29.1528 54.9869 29.1868 54.958 29.2157C54.9225 29.2402 54.8778 29.2527 54.8324 29.2509H54.3839L56.0825 25.5468H56.6737L58.3927 29.2362ZM55.5797 27.8607H57.1833L56.5038 26.3533C56.4537 26.2393 56.4117 26.1227 56.3781 26.0043C56.3543 26.0747 56.3339 26.1421 56.3136 26.2008L56.2524 26.3562L55.5797 27.8607Z" fill="#AFB1B8"/>
<path d="M61.3211 28.8724C61.4275 28.8772 61.5341 28.8772 61.6404 28.8724C61.7323 28.8642 61.8232 28.8495 61.9122 28.8284C61.9954 28.8107 62.0772 28.7882 62.1568 28.7609C62.2316 28.7345 62.3063 28.7022 62.3844 28.67V27.8369H61.705C61.6882 27.8378 61.6714 27.8356 61.6556 27.8305C61.6398 27.8255 61.6254 27.8177 61.6133 27.8076C61.6021 27.7993 61.5933 27.7889 61.5874 27.7772C61.5815 27.7655 61.5787 27.7529 61.5793 27.7401V27.4556H62.8974V28.8753C62.7898 28.9417 62.6762 29.0006 62.5577 29.0513C62.4366 29.1029 62.3104 29.1451 62.1806 29.1774C62.0417 29.2127 61.8996 29.2382 61.7559 29.2537C61.5912 29.2695 61.4257 29.2773 61.26 29.2771C60.967 29.2793 60.6763 29.2325 60.4038 29.1393C60.1495 29.051 59.9184 28.9193 59.7244 28.7521C59.5353 28.5832 59.3864 28.3839 59.2862 28.1655C59.1791 27.9199 59.1261 27.6593 59.1299 27.397C59.1263 27.133 59.1781 26.8706 59.2828 26.6226C59.3805 26.4031 59.5297 26.2033 59.721 26.036C59.9149 25.8693 60.1461 25.7386 60.4005 25.6517C60.6914 25.5572 61.0001 25.5105 61.3109 25.5138C61.4691 25.5137 61.627 25.5245 61.7831 25.5461C61.9212 25.5655 62.0567 25.597 62.1874 25.64C62.3062 25.6785 62.4201 25.7277 62.5271 25.7866C62.6312 25.8445 62.7301 25.9092 62.8227 25.9802L62.6596 26.209C62.6468 26.2299 62.6278 26.2475 62.6045 26.2598C62.5812 26.2722 62.5545 26.279 62.5271 26.2794C62.4895 26.2784 62.453 26.2682 62.4218 26.2501C62.3708 26.2266 62.3165 26.1973 62.2553 26.1621C62.1831 26.123 62.1069 26.0896 62.0277 26.0624C61.9265 26.0273 61.8219 25.9998 61.7152 25.9802C61.5729 25.9576 61.4284 25.9468 61.2837 25.948C61.0596 25.9458 60.8371 25.9807 60.6281 26.0506C60.439 26.1161 60.2686 26.2162 60.1287 26.3439C59.9879 26.4771 59.8803 26.6339 59.8127 26.8045C59.661 27.2056 59.661 27.6381 59.8127 28.0393C59.8871 28.2135 60.0028 28.3724 60.1525 28.5057C60.2918 28.6328 60.4609 28.7328 60.6485 28.799C60.8645 28.8631 61.0934 28.888 61.3211 28.8724Z" fill="#AFB1B8"/>
<path d="M66.7362 28.8136H68.5911V29.2359H66.1689V25.5316H66.7498L66.7362 28.8136Z" fill="#AFB1B8"/>
<path d="M70.5208 29.2359H69.9398V25.5316H70.5208V29.2359Z" fill="#AFB1B8"/>
<path d="M72.6814 25.5492C72.7159 25.5662 72.746 25.5892 72.7697 25.6167L75.253 28.409C75.2497 28.3651 75.2497 28.321 75.253 28.277C75.253 28.236 75.253 28.1949 75.253 28.1568V25.517H75.7592V29.2362H75.4671C75.4238 29.2392 75.3804 29.2321 75.3414 29.2156C75.3061 29.1972 75.275 29.1733 75.2496 29.1452L72.7697 26.3558C72.7697 26.3998 72.7697 26.4409 72.7697 26.482C72.7697 26.523 72.7697 26.5612 72.7697 26.5964V29.2362H72.2839V25.5316H72.5863C72.6191 25.5317 72.6515 25.5377 72.6814 25.5492Z" fill="#AFB1B8"/>
<path d="M80.0364 25.5316V25.9393H77.9777V27.1624H79.6457V27.5554H77.9777V28.8195H80.0364V29.2272H77.3798V25.5316H80.0364Z" fill="#AFB1B8"/>
<path d="M19.1617 2.65551L44.9568 8.97882V31.1368L19.1617 24.8164V2.65551ZM17.5073 0.766724V25.8928L46.6079 33.0285V7.90538L17.5073 0.766724Z" fill="#AFB1B8"/>
<path d="M33.1039 44.6922L4 37.5505V12.4271L33.1039 19.5659V44.6922Z" fill="#AFB1B8"/>
<path d="M17.9897 2.37099L43.4484 8.615L32.6215 17.9649L7.1594 11.7179L17.9897 2.37099ZM17.5073 0.766724L4 12.4277L33.1039 19.5662L46.6078 7.90525L17.5073 0.766724Z" fill="#AFB1B8"/>
<path d="M34.7414 43.2788L46.6078 33.0315L34.7414 30.1193V43.2788Z" fill="#AFB1B8"/>
</g>
<defs>
<filter id="filter0_d_1_628" x="0" y="0.766724" width="101.794" height="51.9255" filterUnits="userSpaceOnUse" color-interpolation-filters="sRGB">
<feFlood flood-opacity="0" result="BackgroundImageFix"/>
<feColorMatrix in="SourceAlpha" type="matrix" values="0 0 0 0 0 0 0 0 0 0 0 0 0 0 0 0 0 0 127 0" result="hardAlpha"/>
<feOffset dy="4"/>
<feGaussianBlur stdDeviation="2"/>
<feComposite in2="hardAlpha" operator="out"/>
<feColorMatrix type="matrix" values="0 0 0 0 0 0 0 0 0 0 0 0 0 0 0 0 0 0 0.25 0"/>
<feBlend mode="normal" in2="BackgroundImageFix" result="effect1_dropShadow_1_628"/>
<feBlend mode="normal" in="SourceGraphic" in2="effect1_dropShadow_1_628" result="shape"/>
</filter>
</defs>
</svg>
