<svg aria-hidden="true" style="position:absolute;width:0;height:0;overflow:hidden" xmlns="http://www.w3.org/2000/svg">
  <defs>
    <symbol id="antenna" viewBox="0 0 32 32">
      <path fill="#212121" style="fill:var(--color1, #212121)" d="m30.773 22.098-8.443-8.505.937-4.615c.242.094.499.144.758.146h.006a2.159 2.159 0 1 0-2.008-1.435l-4.96.605L8.972.161a.534.534 0 0 0-.377-.16.532.532 0 0 0-.373.155L6.709 1.66a.534.534 0 0 0 0 .754l.814.826a14.943 14.943 0 0 0 2.519 17.663.513.513 0 0 0 .146.098c-.034.18-.051.364-.052.547v6.187h-6.4a2.67 2.67 0 0 0-2.667 2.667v1.067c0 .295.239.533.533.533h24.533a.533.533 0 0 0 .533-.533v-1.067a2.67 2.67 0 0 0-2.667-2.667h-6.4v-2.742a15.09 15.09 0 0 0 3.049.32 14.854 14.854 0 0 0 7.04-1.783l.818.823a.534.534 0 0 0 .377.16.532.532 0 0 0 .373-.155l1.513-1.504a.534.534 0 0 0 0-.754zM23.28 6.233a1.066 1.066 0 1 1 .752 1.822h-.003a1.067 1.067 0 0 1-.747-1.823h-.002zm-1.256 3.505-.598 2.946-1.175-1.182 1.774-1.763zm-.605-.902-1.92 1.909-1.485-1.493 3.405-.415zM24.004 28.8a1.6 1.6 0 0 1 1.6 1.6v.533H2.137V30.4a1.6 1.6 0 0 1 1.6-1.6h20.267zm-7.467-2.133v1.067h-5.333v-1.067h5.333zM11.204 25.6v-4.053c0-1.294 1.196-2.347 2.667-2.347s2.667 1.053 2.667 2.347V25.6h-5.333zm6.4-1.696v-2.357c0-1.882-1.675-3.413-3.733-3.413a3.8 3.8 0 0 0-3.281 1.786A13.87 13.87 0 0 1 8.311 4.033l18.602 18.708a13.818 13.818 0 0 1-9.309 1.163zm11.289-.684L7.836 2.039l.755-.752 7.935 7.98c.004 0 .006.007.01.01l13.115 13.191-.757.752z"/>
      <path fill="#2196f3" style="fill:var(--color2, #2196f3)" d="M13.876 20.267h-.005a1.6 1.6 0 1 0-.004 3.2h.005a1.6 1.6 0 1 0 .004-3.2zm.373 1.978a.534.534 0 0 1-.752-.756.534.534 0 0 1 .373-.155.532.532 0 0 1 .373.911h.005z"/>
    </symbol>
    <symbol id="astronaut" viewBox="0 0 34 32">
      <path fill="#2196f3" style="fill:var(--color2, #2196f3)" d="M31.975 4.279a.506.506 0 0 0-.407-.343l-1.807-.263-.809-1.638c-.169-.345-.735-.345-.905 0l-.809 1.638-1.807.263a.504.504 0 0 0-.28.86l1.308 1.275-.309 1.8a.505.505 0 0 0 .732.531l1.616-.85 1.616.85a.504.504 0 0 0 .732-.531l-.309-1.8 1.308-1.275a.506.506 0 0 0 .127-.517zm-2.329 1.256a.504.504 0 0 0-.145.447l.181 1.054-.946-.497a.501.501 0 0 0-.47 0l-.947.497.181-1.054a.507.507 0 0 0-.145-.447l-.766-.747 1.058-.154a.505.505 0 0 0 .38-.276l.473-.959.473.959a.505.505 0 0 0 .38.276l1.058.154-.765.747zm-3.195 13.878h-1.009v1.009h1.009v-1.009zm0 2.018h-1.009v1.009h1.009v-1.009zm1.009-1.009h-1.009v1.009h1.009v-1.009zm-2.018 0h-1.009v1.009h1.009v-1.009zm-2.523 4.541H21.91v1.009h1.009v-1.009zm0 2.018H21.91v1.009h1.009v-1.009zm1.009-1.009h-1.009v1.009h1.009v-1.009zm-2.018 0h-1.009v1.009h1.009v-1.009zm-5.045-3.027h-1.009v1.009h1.009v-1.009zm0 2.018h-1.009v1.009h1.009v-1.009zm1.009-1.01h-1.009v1.009h1.009v-1.009zm-2.018 0h-1.009v1.009h1.009v-1.009zM7.279 5.791H6.27V6.8h1.009V5.791zm0 2.018H6.27v1.009h1.009V7.809zM8.288 6.8H7.279v1.009h1.009V6.8zm-2.018 0H5.261v1.009H6.27V6.8z"/>
      <path fill="#212121" style="fill:var(--color1, #212121)" d="M25.109 13.394a1.675 1.675 0 0 0-1.124-.666 1.677 1.677 0 0 0-1.267.333l-1.185.908-1.795 1.341-1.285-.512c2.29-1.028 3.891-3.319 3.891-5.978 0-3.616-2.954-6.559-6.585-6.559S9.174 5.203 9.174 8.82c0 1.311.392 2.53 1.059 3.555l-2.614-.023h-.005c-.008 0-.015.004-.022.005a.498.498 0 0 0-.147.029c-.012.005-.025.007-.036.013l-.018.006-3.058 1.51h-.001l-1.791.861a.446.446 0 0 0-.06.033 1.684 1.684 0 0 0 .433 3.012 1.68 1.68 0 0 0 1.304-.122l1.313-.698 2.142-1.106 1.284-.008-5.148 5.123-.002.001-1.266 1.261c-.299.298-.464.693-.464 1.114s.164.817.464 1.115c.307.306.711.459 1.115.459s.808-.153 1.116-.459l1.243-1.238 1.647-1.23.852.849-1.666 1.659-.002.001-1.266 1.261c-.299.298-.464.693-.464 1.114s.165.817.464 1.115c.307.306.712.459 1.116.459s.809-.153 1.117-.459l3.293-3.279.001-.002.955-.946-.004-.004c.006-.006.015-.008.021-.015l4.887-5.352 3.283.467a.513.513 0 0 0 .248-.031c.017-.006.031-.014.047-.022.018-.009.037-.014.055-.026l3.04-2.018c.011-.008.017-.02.028-.028.012-.01.027-.014.038-.024l1.203-1.127a1.682 1.682 0 0 0 .2-2.234zM3.745 16.81a.675.675 0 0 1-.528.049.677.677 0 0 1-.201-1.192l1.243-.598.425 1.242-.938.499zm3.308-1.729-1.465.757-.415-1.214 1.917-.946-.037 1.404zm14.283-6.263c0 .869-.207 1.688-.567 2.421l-3.955-1.797a1.76 1.76 0 0 0-.746-1.313l1.385-4.598c2.249.715 3.883 2.814 3.883 5.286zm-11.151 0c0-3.06 2.501-5.55 5.576-5.55.239 0 .473.02.705.049l-1.355 4.497c-.018-.001-.035-.006-.054-.006-.977 0-1.771.792-1.771 1.766s.795 1.766 1.771 1.766c.657 0 1.224-.363 1.531-.894l3.654 1.66a5.576 5.576 0 0 1-4.481 2.261c-3.074 0-5.576-2.49-5.576-5.55zm5.634.757c0 .417-.342.757-.762.757s-.762-.339-.762-.757c0-.417.342-.757.762-.757s.762.34.762.757zM4.061 23.787a.576.576 0 0 1-.808.001.565.565 0 0 1 0-.799l.91-.907.805.802-.907.903zm3.04 3.532a.576.576 0 0 1-.809.001.563.563 0 0 1 0-.799l.911-.907.806.802-.908.904zm3.294-3.282-.002.001-1.669 1.665-.806-.802 1.668-1.66.002-.001a.484.484 0 0 0 .085-.128c.007-.013.019-.024.025-.038.016-.039.018-.081.024-.122.003-.023.013-.045.013-.069 0-.034-.012-.067-.019-.1-.006-.03-.006-.061-.018-.09a.515.515 0 0 0-.086-.13c-.01-.011-.013-.025-.024-.036h-.001l-.001-.002-1.52-1.514c-.016-.016-.037-.023-.055-.036a.49.49 0 0 0-.082-.055.485.485 0 0 0-.088-.031.537.537 0 0 0-.097-.019.45.45 0 0 0-.09.005.53.53 0 0 0-.098.019c-.032.01-.06.026-.089.042-.019.011-.04.014-.058.027l-1.677 1.252-.852-.849 2.269-2.257 4.125 4.057-.877.869zm6.45-6.637c-.015-.002-.028.004-.043.003a.5.5 0 0 0-.283.071.485.485 0 0 0-.079.058c-.012.011-.027.016-.038.028l-4.444 4.868-4.094-4.027 2.68-2.666a.506.506 0 0 0-.359-.862l-2.099.013.026-1.521 2.936.025a6.574 6.574 0 0 0 4.712 1.987 6.61 6.61 0 0 0 1.21-.116c.038.03.075.061.123.08l2.279.908.313 1.555-2.84-.404zm3.823.168-.296-1.474 1.368-1.022.896 1.189-1.968 1.307zm3.551-2.678-.793.743-.881-1.169.787-.603a.692.692 0 0 1 .514-.135.675.675 0 0 1 .373 1.165z"/>
      <path fill="#212121" style="fill:var(--color1, #212121)" d="m14.597 17.542-2.027-2.018a.505.505 0 0 0-.712 0l-2.027 2.018a.505.505 0 0 0 0 .716l2.027 2.018a.504.504 0 0 0 .712 0l2.027-2.018a.506.506 0 0 0 0-.716zm-2.383 1.664L10.902 17.9l1.312-1.306 1.312 1.306-1.312 1.306zm5.752-14.409-.244.98c.067.017 1.644.427 1.644 2.033h1.009c0-1.908-1.576-2.805-2.409-3.012zm2.409 4.021h-1.009v1.009h1.009V8.818z"/>
    </symbol>
    <symbol id="brand" viewBox="0 0 43 32">
      <path d="M3.239 26.373a.98.98 0 0 1 .25.665c.008.158-.022.315-.089.46s-.169.275-.298.38a1.788 1.788 0 0 1-1.125.307H0V23.97h1.937c.382-.023.761.076 1.073.28.125.096.224.217.289.354s.095.286.086.435a.923.923 0 0 1-.225.645 1.06 1.06 0 0 1-.589.329c.262.044.499.172.668.36zM.92 25.737h.828a.835.835 0 0 0 .526-.14c.062-.052.111-.116.141-.187s.043-.148.036-.225c.006-.076-.007-.153-.037-.224s-.078-.135-.138-.188a.858.858 0 0 0-.542-.142H.92v1.106zm1.435 1.616c.066-.053.119-.119.153-.193s.049-.155.043-.235c.005-.081-.01-.163-.045-.238s-.088-.142-.155-.195a.907.907 0 0 0-.562-.152H.921v1.159H1.8a.93.93 0 0 0 .556-.146zm4.842.832L6.12 26.538h-.405v1.647h-.927V23.97h1.754c.442-.028.879.1 1.221.358.245.229.393.53.417.85s-.078.637-.287.894a1.46 1.46 0 0 1-.837.428l1.147 1.684H7.195zm-1.482-2.222h.758c.526 0 .789-.213.789-.638a.586.586 0 0 0-.193-.473.87.87 0 0 0-.596-.171h-.767l.009 1.283zm6.547 1.374h-1.847l-.326.848h-.972l1.696-4.168h1.05l1.689 4.168h-.972l-.319-.848zm-.247-.639-.675-1.779-.675 1.779h1.349zm6.587 1.487h-.92l-2.062-2.867v2.867h-.918V23.97h.918l2.062 2.883V23.97h.92v4.215zm5.25-1.009c-.19.318-.48.577-.832.743-.4.185-.845.276-1.293.266H20.09V23.97h1.637c.448-.011.891.078 1.293.259.352.163.642.419.832.735.189.343.288.722.288 1.106s-.099.763-.288 1.106zm-1.053-.101c.263-.28.407-.637.407-1.006s-.144-.726-.407-1.006a1.692 1.692 0 0 0-1.152-.358h-.639v2.729h.639a1.7 1.7 0 0 0 1.152-.358zM12.838.522s11.873 4.104 11.621 10.043V20.61s-11.864-4.106-11.617-10.045L12.837.522zm22.199 17.737c2.242-1.413 4.836-2.288 7.544-2.545v-3.145c-3.12 1.101-5.766 3.097-7.544 5.69z"/>
      <path d="M33.69 19.206c1.835-3.384 5.017-5.995 8.891-7.296V2.849S25.672 8.695 26.03 17.153v14.302s.753-.262 1.939-.752c0-.457 0-.918.054-1.382.35-3.926 2.389-7.565 5.668-10.115z"/>
      <path d="M32.081 24.52a13.62 13.62 0 0 1 .592-2.928c-2.042 2.203-3.278 4.936-3.536 7.815-.025.272-.038.544-.045.824a50.77 50.77 0 0 0 3.252-1.569 13.564 13.564 0 0 1-.263-4.141zm.673.051a12.973 12.973 0 0 0 .209 3.75c4.62-2.531 9.811-6.442 9.611-11.168v-.412c-3.301.338-6.389 1.659-8.79 3.76a13.125 13.125 0 0 0-1.03 4.069z"/>
    </symbol>
    <symbol id="clock" viewBox="0 0 31 32">
      <path fill="#212121" style="fill:var(--color1, #212121)" d="M29.317 13.732C29.315 6.147 23.165-.001 15.579 0S1.846 6.152 1.847 13.738a13.734 13.734 0 0 0 9.557 13.081.603.603 0 0 0 .475-.058.573.573 0 0 0 .254-.32l3.469-10.994a1.717 1.717 0 0 0-.018-3.434c-.255.001-.507.06-.736.172l-4.582-4.583a.572.572 0 0 0-.809.809l4.58 4.585a1.684 1.684 0 0 0 .481 2.072l-3.305 10.476c-6.531-2.406-9.876-9.651-7.47-16.182s9.651-9.876 16.182-7.47 9.876 9.651 7.47 16.182a12.603 12.603 0 0 1-6.697 7.156l-.357-1.682a.571.571 0 0 0-.94-.308l-3.443 3.074a.573.573 0 0 0 .207.973l4.396 1.403a.572.572 0 0 0 .735-.664l-.351-1.65a13.69 13.69 0 0 0 8.372-12.644zm-13.734-.572a.572.572 0 1 1 0 1.144.572.572 0 0 1 0-1.144zm1.885 13.339 1.96-1.748.541 2.549-2.501-.801z"/>
      <path fill="#2196f3" style="fill:var(--color2, #2196f3)" d="M15.01 2.858v1.145a.572.572 0 1 0 1.144 0V2.858a.572.572 0 1 0-1.144 0zM4.709 13.16a.572.572 0 1 0 0 1.144h1.145a.572.572 0 1 0 0-1.144H4.709zm21.747 1.144a.572.572 0 1 0 0-1.144h-1.145a.572.572 0 1 0 0 1.144h1.145z"/>
    </symbol>
    <symbol id="company" viewBox="0 0 34 32">
      <path d="M5.643 31.315a.095.095 0 0 1 .064.025l.166.159a1.373 1.373 0 0 1-.467.302c-.21.076-.435.113-.663.108a1.77 1.77 0 0 1-.623-.101 1.37 1.37 0 0 1-.469-.285 1.277 1.277 0 0 1-.303-.44 1.472 1.472 0 0 1-.106-.565 1.31 1.31 0 0 1 .436-1.007c.142-.124.312-.222.499-.287.205-.069.422-.103.642-.101.204-.004.407.027.596.092.165.062.316.148.447.255l-.139.17a.173.173 0 0 1-.035.031.097.097 0 0 1-.056.013.136.136 0 0 1-.06-.018l-.075-.045-.104-.058a1.3 1.3 0 0 0-.139-.056 1.46 1.46 0 0 0-.436-.063 1.328 1.328 0 0 0-.461.076c-.136.048-.26.121-.361.213a.987.987 0 0 0-.235.339 1.155 1.155 0 0 0-.085.448 1.17 1.17 0 0 0 .085.455.994.994 0 0 0 .231.338.938.938 0 0 0 .345.209c.136.049.281.073.428.072.085.001.17-.004.253-.014a1.01 1.01 0 0 0 .548-.233.127.127 0 0 1 .079-.029zm4.798-.798c.003.192-.035.382-.112.561-.068.163-.174.311-.313.436s-.306.222-.491.286a2.02 2.02 0 0 1-1.263 0 1.454 1.454 0 0 1-.488-.287 1.288 1.288 0 0 1-.316-.44 1.462 1.462 0 0 1 0-1.125c.071-.164.178-.314.316-.442.139-.12.305-.214.488-.276a1.992 1.992 0 0 1 1.263 0c.185.065.351.163.49.287.137.125.243.273.314.435.077.181.115.372.112.565zm-.436 0a1.186 1.186 0 0 0-.079-.451.941.941 0 0 0-.222-.338.971.971 0 0 0-.351-.213 1.456 1.456 0 0 0-.918 0 .971.971 0 0 0-.351.213.897.897 0 0 0-.224.338 1.322 1.322 0 0 0 0 .903.926.926 0 0 0 .575.549 1.5 1.5 0 0 0 .918 0 .98.98 0 0 0 .351-.211.933.933 0 0 0 .222-.338c.056-.145.082-.298.079-.451zm3.71.473.044.101c.017-.036.031-.069.048-.101a.95.95 0 0 1 .054-.099l1.062-1.677c.021-.029.039-.047.06-.052a.283.283 0 0 1 .087-.009h.314v2.727h-.372v-2.09a.737.737 0 0 1 0-.094l-1.068 1.7c-.014.025-.035.047-.063.062s-.059.023-.091.023h-.06c-.032 0-.064-.007-.091-.022s-.049-.037-.062-.062l-1.099-1.711v2.189h-.359v-2.722h.314a.28.28 0 0 1 .087.009c.026.011.046.03.058.052l1.084 1.678a.662.662 0 0 1 .054.097zm3.995-.135v1.021h-.415v-2.723h.926c.175-.003.349.017.517.059.134.033.259.091.366.17a.713.713 0 0 1 .208.267.825.825 0 0 1 .071.348.771.771 0 0 1-.301.621 1.062 1.062 0 0 1-.368.18 1.757 1.757 0 0 1-.501.063l-.503-.007zm0-.293h.503a1.2 1.2 0 0 0 .322-.041.71.71 0 0 0 .233-.117.526.526 0 0 0 .191-.409c.005-.076-.009-.151-.042-.222s-.082-.134-.145-.186a.889.889 0 0 0-.559-.146h-.503v1.122zm5.584 1.318h-.328a.158.158 0 0 1-.091-.025.17.17 0 0 1-.054-.063l-.282-.659H21.12l-.293.659a.152.152 0 0 1-.145.088h-.328l1.246-2.727h.432l1.263 2.727zm-2.057-1.013h1.172l-.494-1.11a1.746 1.746 0 0 1-.093-.256l-.048.143a1.122 1.122 0 0 1-.046.116l-.49 1.108zm3.852-1.702a.178.178 0 0 1 .062.049l1.818 2.056v-2.117h.372v2.727h-.208a.201.201 0 0 1-.085-.016.24.24 0 0 1-.067-.05l-1.816-2.054a.737.737 0 0 1 0 .094v2.027h-.372v-2.727h.22a.191.191 0 0 1 .075.013zm5.313 1.63v1.083h-.415v-1.083l-1.149-1.642h.372a.15.15 0 0 1 .089.023.23.23 0 0 1 .056.061l.719 1.059a1.064 1.064 0 0 1 .127.242l.054-.117a.975.975 0 0 1 .071-.125l.708-1.067a.295.295 0 0 1 .054-.058.14.14 0 0 1 .089-.027h.376l-1.151 1.65zM13.51 24.576c.181.02.364.036.548.051 2.803-1.089 5.174-2.873 6.817-5.126s2.485-4.878 2.421-7.546l-3.089-2.684c.628 2.84.334 5.776-.849 8.479s-3.208 5.067-5.849 6.827z"/>
      <path d="m12.407 24.451.083.014c2.822-1.754 4.974-4.203 6.176-7.03s1.402-5.904.571-8.83l-4.4-3.823c1.78 3.142 2.496 6.659 2.066 10.141s-1.989 6.786-4.496 9.528zm14.921-9.345c-.747 2.931-2.563 5.574-5.177 7.537a16.49 16.49 0 0 1-2.46 1.534c2.128-.544 4.085-1.504 5.718-2.809s2.9-2.917 3.703-4.714l-1.784-1.549z"/>
      <path d="m26.628 14.674-2.541-2.207c-.049 2.517-.872 4.976-2.385 7.123s-3.66 3.902-6.217 5.084h.012c.57 0 1.139-.03 1.705-.088 2.39-.848 4.502-2.196 6.147-3.926s2.771-3.785 3.278-5.985zM12.774 3.17 9.743.533c-2.709.91-5.04 2.509-6.686 4.588S.526 9.663.517 12.187c.01 2.789 1.09 5.495 3.07 7.69s4.745 3.754 7.859 4.43c2.78-2.942 4.407-6.579 4.646-10.38s-.924-7.569-3.319-10.757zM33.63 14.268c-.011-3.309-1.529-6.479-4.221-8.818s-6.342-3.658-10.15-3.668a16.144 16.144 0 0 0-5.146.832L32.67 18.737a10.94 10.94 0 0 0 .96-4.469z"/>
    </symbol>
    <symbol id="ctagline" viewBox="0 0 62 32">
      <path d="M31.049 12.926a1.774 1.774 0 0 1-.365-1.201V9.984c0-.534.121-.939.363-1.217s.658-.416 1.247-.414c.554 0 .947.118 1.179.354.254.301.377.67.349 1.041v.409h-.991v-.414a2.035 2.035 0 0 0-.029-.405.389.389 0 0 0-.142-.241.573.573 0 0 0-.359-.094.607.607 0 0 0-.377.099.463.463 0 0 0-.164.266 2.073 2.073 0 0 0-.039.43v2.113c-.016.204.028.408.127.593.049.063.118.112.198.144s.168.043.256.033a.536.536 0 0 0 .351-.096.422.422 0 0 0 .148-.257c.023-.14.033-.282.031-.423v-.429h.991v.391c.028.387-.093.772-.343 1.094-.228.259-.615.388-1.186.388s-1.001-.138-1.245-.425zm4.125.017c-.25-.271-.375-.666-.375-1.188V9.924c0-.517.125-.908.375-1.174s.669-.398 1.255-.397c.583 0 .999.132 1.249.397.25.266.377.657.377 1.174v1.831c0 .517-.127.914-.382 1.186s-.669.409-1.245.409c-.576 0-1.003-.138-1.255-.407zm1.717-.439c.09-.17.13-.356.119-.542V9.72a1 1 0 0 0-.117-.531c-.05-.064-.12-.115-.202-.146s-.172-.042-.261-.031c-.089-.011-.18 0-.262.031s-.153.082-.204.146a.975.975 0 0 0-.119.531v2.253a.997.997 0 0 0 .119.542.615.615 0 0 0 .209.134.709.709 0 0 0 .51 0 .63.63 0 0 0 .209-.134v-.011zm2.356-4.097h1.067l.802 3.378.82-3.378h1.038l.105 4.877h-.767l-.082-3.389-.792 3.389h-.615l-.82-3.402-.076 3.402h-.775l.096-4.877zm5.028 0h1.661c.957 0 1.436.462 1.436 1.385 0 .884-.504 1.326-1.512 1.324h-.566v2.167h-1.026l.006-4.877zm1.419 2.084c.101.011.204.003.302-.024s.187-.071.262-.13a.793.793 0 0 0 .148-.551 1.542 1.542 0 0 0-.049-.443c-.015-.048-.04-.094-.075-.134s-.079-.073-.13-.098a1.058 1.058 0 0 0-.457-.078h-.398v1.457h.398zm3.157-2.084h1.101l1.13 4.877h-.956l-.224-1.124h-.983l-.23 1.124h-.97l1.13-4.877zm.941 3.187-.384-2.047-.384 2.047h.767zm2.203-3.187h.718l1.374 2.782V8.407h.851v4.877h-.683l-1.382-2.904v2.904h-.88l.002-4.877zm4.938 3.017-1.143-3.01h.962l.697 1.934.654-1.934h.941l-1.128 3.01v1.859h-.984v-1.859zm-24.3 3.991v.255h-.837v1.982h-.351V15.67h-.841v-.255h2.029zm2.623 2.237h-.271a.125.125 0 0 1-.076-.021.122.122 0 0 1-.045-.051l-.242-.531h-1.161l-.242.531a.15.15 0 0 1-.037.06.123.123 0 0 1-.076.021h-.271l1.026-2.236h.357l1.038 2.228zm-1.698-.83h.968l-.41-.91a1.61 1.61 0 0 1-.076-.211l-.039.119-.037.094-.406.908zm3.466.61a1.122 1.122 0 0 0 .357-.027 1.246 1.246 0 0 0 .285-.096v-.503h-.41a.082.082 0 0 1-.056-.018c-.007-.005-.012-.011-.016-.018s-.005-.015-.005-.022v-.172h.796v.857a1.528 1.528 0 0 1-.433.182c-.084.021-.17.037-.256.046-.099.01-.199.014-.299.014a1.582 1.582 0 0 1-.517-.083 1.249 1.249 0 0 1-.41-.234 1.09 1.09 0 0 1-.265-.354 1.101 1.101 0 0 1-.094-.464 1.17 1.17 0 0 1 .092-.468c.059-.133.149-.253.265-.354.117-.101.257-.18.41-.232a1.932 1.932 0 0 1 .835-.063c.083.012.165.031.244.057a1.172 1.172 0 0 1 .383.205l-.098.138a.094.094 0 0 1-.08.043.14.14 0 0 1-.064-.018 1.268 1.268 0 0 1-.101-.053.876.876 0 0 0-.137-.06 1.312 1.312 0 0 0-.189-.05 1.514 1.514 0 0 0-.261-.019c-.135-.001-.27.02-.396.062a.778.778 0 0 0-.493.455 1.043 1.043 0 0 0 0 .746.872.872 0 0 0 .504.459c.13.039.269.054.406.044zm3.27-.035h1.12v.255h-1.462v-2.237h.351l-.008 1.982zm2.285.255h-.351v-2.237h.351v2.237zm1.304-2.226c.021.01.039.024.053.041l1.499 1.686a.534.534 0 0 1 0-.08v-1.667h.306v2.246h-.176a.164.164 0 0 1-.076-.012.194.194 0 0 1-.055-.043l-1.497-1.684v1.739h-.293v-2.237h.183c.02 0 .039.004.057.011zm4.441-.011v.246h-1.243v.738h1.007v.237h-1.007v.763h1.243v.246H46.72v-2.231h1.604zM11.569 1.603l15.574 3.818v13.378l-15.574-3.816V1.603zM10.57.463v15.17l17.57 4.308V4.772L10.57.462z"/>
      <path d="M19.987 26.984 2.415 22.672V7.503l17.572 4.31v15.171z"/>
      <path d="m10.862 1.432 15.371 3.77-6.537 5.645L4.323 7.075l6.539-5.643zM10.57.463 2.415 7.504l17.572 4.31 8.153-7.041L10.57.463zm10.406 25.668 7.165-6.187-7.165-1.758v7.945z"/>
    </symbol>
    <symbol id="diagram" viewBox="0 0 36 32">
      <path fill="#2196f3" style="fill:var(--color2, #2196f3)" d="M16.754 14.965h1.066v4.798h-1.066v-4.797zm4.264 2.132h1.066v2.665h-1.066v-2.665zm-8.528 1.599h1.066v1.066H12.49v-1.066zm-3.199-.533h1.066v1.599H9.291v-1.599z"/>
      <path fill="#212121" style="fill:var(--color1, #212121)" d="M3.428 28.291h25.587a1.6 1.6 0 0 0 1.599-1.599V24.56a1.6 1.6 0 0 0-1.599-1.599h-.533V9.668L31.51 6.8a1.608 1.608 0 1 0-.747-.763L28.482 8.2V6.97a1.6 1.6 0 0 0-1.599-1.599H5.561A1.6 1.6 0 0 0 3.962 6.97v15.992h-.533a1.6 1.6 0 0 0-1.599 1.599v2.132a1.6 1.6 0 0 0 1.599 1.599zM32.213 4.837a.533.533 0 1 1 0 1.067.533.533 0 0 1 0-1.067zM5.027 6.969c0-.294.239-.533.533-.533h21.322c.294 0 .533.239.533.533v2.239l-1.066 1.013V8.035a.533.533 0 0 0-.533-.533H6.626a.533.533 0 0 0-.533.533v13.326c0 .294.239.533.533.533h19.19a.533.533 0 0 0 .533-.533v-9.674l1.066-1.01v12.284H5.027V6.969zm4.797 6.93a1.598 1.598 0 1 0 1.107 2.749l1.853.93a.532.532 0 0 0 .636-.123l3.939-4.431 3.872 2.901a.533.533 0 0 0 .686-.039l3.365-3.188v8.131H7.158V8.569h18.124v2.66l-3.771 3.572-3.904-2.927a.533.533 0 0 0-.718.072l-3.993 4.493-1.493-.746c.011-.064.018-.129.02-.193a1.6 1.6 0 0 0-1.599-1.599zm.533 1.599a.533.533 0 1 1-1.067 0 .533.533 0 0 1 1.067 0zm3.199 8.529h5.331v.533a.533.533 0 0 1-.533.533H14.09a.533.533 0 0 1-.533-.533v-.533zm-10.661.533c0-.294.239-.533.533-.533h9.062v.533a1.6 1.6 0 0 0 1.599 1.599h4.264a1.6 1.6 0 0 0 1.599-1.599v-.533h9.062c.294 0 .533.239.533.533v2.132a.533.533 0 0 1-.533.533H3.427a.533.533 0 0 1-.533-.533V24.56z"/>
    </symbol>
    <symbol id="envelope" viewBox="0 0 43 32">
      <path d="M38.667 0H4C1.794 0 0 1.794 0 4v24c0 2.206 1.794 4 4 4h34.667c2.206 0 4-1.794 4-4V4c0-2.206-1.794-4-4-4zm0 2.667c.181 0 .353.038.511.103L21.334 18.236 3.49 2.77a1.32 1.32 0 0 1 .511-.103h34.667zm0 26.666H4A1.334 1.334 0 0 1 2.667 28V5.587L20.46 21.008a1.335 1.335 0 0 0 1.748 0L40.001 5.587V28c0 .736-.598 1.333-1.333 1.333z"/>
    </symbol>
    <symbol id="facebook" viewBox="0 0 32 32">
      <path d="M21.329 5.313h2.921V.225C23.746.156 22.013 0 19.994 0c-4.212 0-7.097 2.649-7.097 7.519V12H8.249v5.688h4.648V32h5.699V17.689h4.46l.708-5.688h-5.169V8.082c.001-1.644.444-2.769 2.735-2.769z"/>
    </symbol>
    <symbol id="foster" viewBox="0 0 57 32">
      <path d="M10.974 8.386h-.002c-1.535 0-2.779 1.106-2.779 2.47v.002c0 1.364 1.244 2.47 2.779 2.47h.002c1.535 0 2.779-1.106 2.779-2.47v-.002c0-1.364-1.244-2.47-2.779-2.47zm20.511-.79c-.004-1.894-.853-3.71-2.36-5.05S25.575.452 23.443.447c-2.132.003-4.176.758-5.684 2.097S15.402 5.7 15.398 7.595v10.447S31.483 16.45 31.485 7.597v-.002zM2.56 21.472c.004 1.318.595 2.581 1.643 3.514s2.47 1.458 3.953 1.462c1.483-.004 2.904-.529 3.952-1.461s1.64-2.195 1.644-3.512v-7.269S2.559 15.315 2.559 21.473zm5.596 1.302c-.29 0-.573-.076-.814-.219s-.429-.346-.54-.584c-.111-.238-.14-.5-.083-.752s.196-.485.401-.667c.205-.182.466-.306.75-.356s.579-.024.847.074c.268.099.497.266.658.48s.247.466.247.724c.001.171-.037.341-.11.5s-.181.303-.317.424-.298.218-.476.284-.369.1-.562.1v-.005zm11.311-.717h-1.08v1.116h-.563v-2.73h1.777v.456h-1.215v.705h1.08v.454zm2.704-.188c0 .269-.047.504-.143.707a1.073 1.073 0 0 1-1.017.634 1.08 1.08 0 0 1-1.018-.628 1.613 1.613 0 0 1-.148-.698v-.135c0-.269.048-.505.144-.709.098-.205.234-.362.411-.471.178-.11.38-.165.608-.165s.429.055.606.165c.177.109.314.266.411.471.097.204.146.439.146.707v.122zm-.57-.123c0-.286-.051-.504-.154-.652s-.249-.223-.439-.223a.502.502 0 0 0-.437.221c-.102.146-.154.361-.156.645v.133c0 .279.051.495.154.649s.25.231.442.231a.496.496 0 0 0 .435-.221c.101-.149.152-.365.154-.649v-.133zm2.394.71a.287.287 0 0 0-.113-.244c-.075-.057-.21-.117-.405-.18a2.876 2.876 0 0 1-.463-.188c-.31-.168-.465-.393-.465-.677 0-.148.041-.279.124-.394a.82.82 0 0 1 .358-.272c.156-.065.331-.097.525-.097.195 0 .369.036.521.107.152.07.271.169.354.298a.78.78 0 0 1 .128.439h-.563a.366.366 0 0 0-.118-.291.483.483 0 0 0-.332-.105.515.515 0 0 0-.321.088.273.273 0 0 0-.114.229c0 .089.044.163.133.223.09.06.222.116.396.169.32.096.553.216.699.358s.219.32.219.532a.66.66 0 0 1-.268.557c-.179.134-.419.201-.722.201a1.41 1.41 0 0 1-.574-.114.931.931 0 0 1-.396-.317.814.814 0 0 1-.135-.465h.564c0 .301.18.452.54.452a.527.527 0 0 0 .313-.081.268.268 0 0 0 .113-.229zm3.002-1.558h-.836v2.274h-.563v-2.274h-.825v-.456h2.224v.456zm1.965 1.091h-1.08v.731h1.268v.452h-1.83v-2.73h1.826v.456h-1.264v.651h1.08v.441zm1.528.184h-.448v.999h-.563v-2.73h1.014c.323 0 .571.072.746.216s.262.347.262.609a.843.843 0 0 1-.122.467.814.814 0 0 1-.366.296l.591 1.116v.026H31l-.512-.999zm-.448-.456h.454a.468.468 0 0 0 .328-.107.387.387 0 0 0 .116-.298.41.41 0 0 0-.111-.304c-.073-.074-.184-.111-.336-.111h-.452v.819zm3.409.494v.962h-.563v-2.73h1.065c.205 0 .385.038.54.113a.828.828 0 0 1 .36.321.885.885 0 0 1 .126.471c0 .268-.092.479-.276.634-.183.154-.436.231-.759.231h-.493zm0-.456h.502c.149 0 .262-.035.339-.105.079-.07.118-.17.118-.3 0-.134-.039-.242-.118-.324s-.188-.125-.326-.128h-.516v.857zm3.559.234h-1.08v.731h1.268v.452h-1.83v-2.73h1.826v.456H35.93v.651h1.08v.441zm2.61-1.091h-.836v2.274h-.563v-2.274h-.825v-.456h2.224v.456zm1.965 1.091h-1.08v.731h1.267v.452h-1.83v-2.73h1.826v.456h-1.264v.651h1.08v.441zm1.528.184h-.448v.999h-.563v-2.73h1.014c.322 0 .571.072.746.216s.263.347.263.609a.843.843 0 0 1-.122.467.814.814 0 0 1-.366.296l.591 1.116v.026h-.604l-.512-.999zm-.448-.456h.454a.468.468 0 0 0 .328-.107.387.387 0 0 0 .116-.298.41.41 0 0 0-.111-.304c-.072-.074-.184-.111-.336-.111h-.452v.819zm3.305.739a.289.289 0 0 0-.112-.244c-.075-.057-.21-.117-.405-.18a2.876 2.876 0 0 1-.463-.188c-.31-.168-.465-.393-.465-.677 0-.148.041-.279.124-.394a.82.82 0 0 1 .358-.272c.156-.065.331-.097.525-.097.195 0 .369.036.521.107.153.07.271.169.354.298a.779.779 0 0 1 .127.439h-.563a.366.366 0 0 0-.118-.291.483.483 0 0 0-.332-.105.517.517 0 0 0-.321.088.273.273 0 0 0-.114.229c0 .089.044.163.133.223.09.06.222.116.396.169.32.096.553.216.699.358s.219.32.219.532a.66.66 0 0 1-.268.557c-.179.134-.419.201-.722.201a1.41 1.41 0 0 1-.574-.114.925.925 0 0 1-.396-.317.814.814 0 0 1-.135-.465h.564c0 .301.18.452.54.452a.527.527 0 0 0 .313-.081.267.267 0 0 0 .112-.229z"/>
    </symbol>
    <symbol id="instagram" viewBox="0 0 32 32">
      <path d="M31.969 9.408c-.075-1.7-.35-2.869-.744-3.882a7.806 7.806 0 0 0-1.851-2.838A7.867 7.867 0 0 0 26.542.844C25.523.45 24.36.175 22.66.1 20.947.019 20.403 0 16.059 0s-4.888.019-6.595.094c-1.7.075-2.869.35-3.882.744a7.803 7.803 0 0 0-2.838 1.85A7.867 7.867 0 0 0 .9 5.52C.506 6.539.231 7.702.156 9.402c-.081 1.713-.1 2.257-.1 6.601s.019 4.888.094 6.595c.075 1.7.35 2.869.744 3.882a7.895 7.895 0 0 0 1.85 2.838 7.867 7.867 0 0 0 2.832 1.844c1.019.394 2.182.669 3.882.744 1.706.075 2.25.094 6.595.094s4.888-.019 6.595-.094c1.7-.075 2.869-.35 3.882-.744a8.184 8.184 0 0 0 4.682-4.682c.394-1.019.669-2.182.744-3.882.075-1.707.094-2.251.094-6.595s-.006-4.888-.081-6.595zm-2.882 13.065c-.069 1.563-.331 2.407-.55 2.969a5.31 5.31 0 0 1-3.038 3.038c-.563.219-1.413.481-2.969.55-1.688.075-2.194.094-6.464.094s-4.782-.019-6.464-.094c-1.563-.069-2.407-.331-2.969-.55a4.926 4.926 0 0 1-1.838-1.194 4.974 4.974 0 0 1-1.194-1.838c-.219-.563-.481-1.413-.55-2.969-.075-1.688-.094-2.194-.094-6.464s.019-4.782.094-6.464c.069-1.563.331-2.407.55-2.969a4.868 4.868 0 0 1 1.2-1.838A4.974 4.974 0 0 1 6.639 3.55c.563-.219 1.413-.481 2.969-.55 1.688-.075 2.194-.094 6.464-.094 4.276 0 4.782.019 6.464.094 1.563.069 2.407.331 2.969.55a4.914 4.914 0 0 1 1.838 1.194 4.974 4.974 0 0 1 1.194 1.838c.219.563.481 1.413.55 2.969.075 1.688.094 2.194.094 6.464s-.019 4.77-.094 6.458z"/>
      <path d="M16.059 7.783c-4.538 0-8.22 3.682-8.22 8.22s3.682 8.22 8.22 8.22c4.539 0 8.22-3.682 8.22-8.22s-3.682-8.22-8.22-8.22zm0 13.552a5.333 5.333 0 0 1 0-10.664 5.333 5.333 0 0 1 0 10.664zM26.524 7.458a1.919 1.919 0 1 1-3.838 0 1.919 1.919 0 0 1 3.838 0z"/>
    </symbol>
    <symbol id="linkedin" viewBox="0 0 32 32">
      <path d="M31.992 32v-.001H32V20.263c0-5.741-1.236-10.164-7.948-10.164-3.227 0-5.392 1.771-6.276 3.449h-.093v-2.913h-6.364v21.364h6.627V21.42c0-2.785.528-5.479 3.977-5.479 3.399 0 3.449 3.179 3.449 5.657v10.401h6.62zM.528 10.636h6.635V32H.528V10.636zM3.843 0C1.722 0 0 1.721 0 3.843s1.721 3.879 3.843 3.879c2.121 0 3.843-1.757 3.843-3.879A3.846 3.846 0 0 0 3.843 0z"/>
    </symbol>
    <symbol id="phone" viewBox="0 0 20 32">
      <path d="M17 0H3C1.346 0 0 1.346 0 3v26c0 1.654 1.346 3 3 3h14c1.654 0 3-1.346 3-3V3c0-1.654-1.346-3-3-3zM3 2h14a1 1 0 0 1 1 1v21H2V3a1 1 0 0 1 1-1zm14 28H3a1 1 0 0 1-1-1v-3h16v3a1 1 0 0 1-1 1z"/>
    </symbol>
    <symbol id="tagline" viewBox="0 0 25 32">
      <path d="M10.531 1.806h-.084a9.985 9.985 0 0 0-.388-.014h-.28c-.244 0-.494.006-.741.019a.523.523 0 0 0-.056 0 17.4 17.4 0 0 0-6.471 1.651l-.266.128v13.625l.623-.211a23.32 23.32 0 0 1 1.731-.513 21.155 21.155 0 0 1 4.982-.662v1.79a15.56 15.56 0 0 0-.655.019h-.051a19.948 19.948 0 0 0-3.833.588c-1.59.398-3.124.996-4.566 1.779V2.53A18.3 18.3 0 0 1 5.266.582 18.343 18.343 0 0 1 9.781 0h.263c.314.008.621.022.909.044.759.053 1.511.173 2.249.358v1.762a13.947 13.947 0 0 0-2.179-.329l-.045-.004c-.152-.013-.304-.026-.446-.026zm3.102 1.801c.391.03.796.044 1.205.044a19.352 19.352 0 0 0 4.747-.609c1.589-.4 3.123-.998 4.564-1.781v17.163a18.313 18.313 0 0 1-4.792 1.948 18.486 18.486 0 0 1-4.515.581 13.778 13.778 0 0 1-3.425-.404V3.274c.265.061.537.117.814.164.455.077.934.133 1.401.167zm8.734.133-.623.21c-.573.192-1.15.365-1.731.518a21.098 21.098 0 0 1-5.173.663c-.406 0-.78-.011-1.141-.034l-.497-.033v14.017l.427.038c.395.034.803.052 1.214.052a16.573 16.573 0 0 0 4.074-.527 17.107 17.107 0 0 0 3.184-1.144l.266-.128V3.742zM1.684 25.977a.912.912 0 0 0-.693-.28 1.034 1.034 0 0 0-.4.075.91.91 0 0 0-.512.518 1.023 1.023 0 0 0-.072.387v2.335c-.006.165.026.328.092.479.055.12.135.226.233.313a.815.815 0 0 0 .321.166c.114.032.231.048.349.049a.972.972 0 0 0 .892-.61.951.951 0 0 0 .075-.372v-.261h-.61v.208a.528.528 0 0 1-.036.208.359.359 0 0 1-.089.131.365.365 0 0 1-.128.067.425.425 0 0 1-.128.022.314.314 0 0 1-.286-.125.548.548 0 0 1-.081-.313v-2.177a.738.738 0 0 1 .075-.349.31.31 0 0 1 .299-.141.33.33 0 0 1 .272.131c.068.09.104.2.101.313v.202h.604v-.238a1.093 1.093 0 0 0-.279-.737zm3.626-.027a1.051 1.051 0 0 0-1.38 0 .961.961 0 0 0-.237.327 1.099 1.099 0 0 0-.089.452v2.239a1.08 1.08 0 0 0 .089.459c.055.12.136.227.237.313a.94.94 0 0 0 .322.197 1.028 1.028 0 0 0 .728 0c.121-.044.233-.111.33-.197a.948.948 0 0 0 .23-.313 1.08 1.08 0 0 0 .089-.459v-2.239a1.08 1.08 0 0 0-.089-.452 1.015 1.015 0 0 0-.23-.327zm-.285 3.019a.405.405 0 0 1-.121.324.445.445 0 0 1-.574 0 .397.397 0 0 1-.121-.324V26.73a.405.405 0 0 1 .121-.324.445.445 0 0 1 .574 0 .397.397 0 0 1 .121.324v2.239zm5.047 1V25.73h-.587l-.771 2.244h-.011l-.777-2.244h-.581v4.239h.606V27.39h.011l.593 1.823h.302l.598-1.823h.011v2.579h.606zm3.441-3.942a.84.84 0 0 0-.343-.232 1.363 1.363 0 0 0-.439-.066h-.9v4.239h.604v-1.656h.311c.188.009.376-.031.545-.116a.882.882 0 0 0 .332-.324 1.02 1.02 0 0 0 .139-.369c.024-.16.035-.321.033-.482a2.421 2.421 0 0 0-.059-.606.898.898 0 0 0-.223-.39zm-.312 1.292a.547.547 0 0 1-.056.221.346.346 0 0 1-.156.149.619.619 0 0 1-.285.053h-.275v-1.441h.311a.578.578 0 0 1 .272.053.349.349 0 0 1 .142.157.62.62 0 0 1 .053.236v.282c0 .099.006.2 0 .291h-.006zm3.173-1.589h-.495l-.934 4.239h.604l.177-.911h.823l.177.911h.604l-.957-4.239zm-.557 2.751.297-1.537h.011l.296 1.537h-.604zm4.46-.197h-.011l-.912-2.554h-.581v4.239h.604V27.42h.012l.923 2.549h.568V25.73h-.604v2.554zm3.691-2.554-.486 1.685h-.012l-.486-1.685h-.64l.83 2.447v1.792h.604v-1.792l.83-2.447h-.64zM0 31.166h.291v.817h.198v-.817h.29v-.167H.001v.167zm2.447-.168-.381.984h.21l.081-.224h.392l.084.224h.215l-.391-.984h-.21zm-.031.595.134-.365.134.365h-.268zm2.45.027h.227v.127a.382.382 0 0 1-.234.083.244.244 0 0 1-.209-.093.411.411 0 0 1-.073-.257c0-.219.095-.329.283-.329a.206.206 0 0 1 .222.157l.195-.038c-.042-.192-.181-.289-.417-.289a.495.495 0 0 0-.344.127.494.494 0 0 0-.141.379.532.532 0 0 0 .126.369.477.477 0 0 0 .374.144.59.59 0 0 0 .417-.157v-.388h-.427v.166zm2.471-.622h-.199v.984h.69v-.167h-.49v-.817zm2.089 0h-.199v.984h.199v-.984zm2.043.658-.403-.657h-.193v.984h.185v-.643l.395.643h.198v-.984h-.182v.657zm1.846-.107h.49v-.167h-.49v-.216h.528v-.167h-.727v.984h.747v-.167h-.548v-.266zm4.477-.162h-.388v-.388h-.198v.984h.198v-.43h.388v.43h.198v-.984h-.198v.388zm1.857.162h.492v-.167h-.492v-.216h.529v-.167h-.727v.984h.746v-.167h-.548v-.266zm2.519 0c.171-.027.258-.117.258-.274a.236.236 0 0 0-.096-.219.553.553 0 0 0-.288-.058h-.417v.984h.198v-.412h.039a.261.261 0 0 1 .123.022.21.21 0 0 1 .07.072l.215.313h.237l-.12-.192a.685.685 0 0 0-.218-.236zm-.199-.136h-.146v-.247h.156a.526.526 0 0 1 .201.023.135.135 0 0 1 .033.046.133.133 0 0 1-.005.111.128.128 0 0 1-.037.043.547.547 0 0 1-.201.023zm2.098.136h.49v-.167h-.49v-.216h.529v-.167h-.729v.984h.747v-.167h-.548v-.266z"/>
    </symbol>
    <symbol id="twitter" viewBox="0 0 32 32">
      <path d="M32 6.078c-1.19.522-2.458.868-3.78 1.036a6.523 6.523 0 0 0 2.886-3.626 13.11 13.11 0 0 1-4.16 1.588A6.574 6.574 0 0 0 22.154 3c-3.632 0-6.556 2.948-6.556 6.562 0 .52.044 1.02.152 1.496-5.454-.266-10.28-2.88-13.522-6.862a6.605 6.605 0 0 0-.898 3.316 6.57 6.57 0 0 0 2.914 5.452 6.479 6.479 0 0 1-2.964-.808v.072c0 3.188 2.274 5.836 5.256 6.446a6.548 6.548 0 0 1-1.72.216 5.8 5.8 0 0 1-1.242-.112c.85 2.598 3.262 4.508 6.13 4.57a13.182 13.182 0 0 1-8.134 2.798c-.538 0-1.054-.024-1.57-.09A18.469 18.469 0 0 0 10.064 29c12.072 0 18.672-10 18.672-18.668 0-.29-.01-.57-.024-.848A13.087 13.087 0 0 0 32 6.078z"/>
    </symbol>
    <symbol id="yaco" viewBox="0 0 28 32">
      <path d="m4.085 0 4.771 4.517L0 4.512v21.915h23.149v-8.379l4.766 4.512V.001H4.085zm18.854 17.517L9.411 4.71h13.528v12.807zm-4.2 5.704H3.663V8.482h1.066v13.741h14.01v.998zM7.223 29.344l-.557 1.147-.557-1.147h-.467l.813 1.529v.891h.422v-.891l.811-1.529h-.465zm.7 2.42.196-.563h.938l.198.563h.439l-.916-2.42h-.377l-.914 2.42h.437zm.665-1.906.351 1.004h-.701l.351-1.004zm2.217.946a.55.55 0 0 0-.091.307c0 .204.072.37.214.497.144.126.336.189.575.189s.445-.065.618-.194l.136.161h.469l-.356-.421c.14-.191.209-.435.209-.733h-.351a.973.973 0 0 1-.101.444l-.467-.552.165-.12a.905.905 0 0 0 .251-.253.532.532 0 0 0 .076-.279.496.496 0 0 0-.17-.384.61.61 0 0 0-.432-.156.641.641 0 0 0-.465.166.591.591 0 0 0-.173.449c0 .078.018.158.055.241.038.083.104.184.198.303-.18.129-.3.24-.361.334zm1.092.535a.616.616 0 0 1-.382.136c-.121 0-.217-.035-.289-.105s-.108-.161-.108-.273c0-.13.067-.245.2-.346l.052-.037.529.623zm-.434-1.072c-.114-.141-.171-.258-.171-.351 0-.081.023-.148.07-.201s.109-.08.188-.08c.073 0 .133.023.181.068a.21.21 0 0 1 .072.161.298.298 0 0 1-.103.234l-.052.042-.184.126zm3.94 1.314c.166-.145.262-.347.286-.605h-.419c-.022.173-.075.296-.158.371s-.207.111-.372.111a.468.468 0 0 1-.412-.206c-.093-.137-.14-.337-.14-.598v-.214c.002-.258.052-.454.15-.587a.493.493 0 0 1 .422-.201c.157 0 .277.039.357.116.082.076.133.202.153.376h.419c-.027-.265-.121-.47-.284-.615s-.378-.218-.645-.218a.978.978 0 0 0-.525.141c-.151.094-.267.228-.347.402s-.121.375-.121.603v.226c.003.223.045.418.125.587s.193.299.339.391a.949.949 0 0 0 .51.136c.276 0 .497-.072.663-.216zm2.472-.339c.082-.18.123-.388.123-.625v-.135a1.462 1.462 0 0 0-.126-.62.924.924 0 0 0-.878-.552.957.957 0 0 0-.525.145.939.939 0 0 0-.354.414 1.484 1.484 0 0 0-.125.625v.136c.001.232.043.436.126.613a.962.962 0 0 0 .356.411.98.98 0 0 0 .525.143.97.97 0 0 0 .525-.143.932.932 0 0 0 .352-.412zm-.451-1.368c.102.143.153.349.153.617v.126c0 .273-.05.48-.151.622a.493.493 0 0 1-.429.213.503.503 0 0 1-.432-.218c-.103-.145-.155-.351-.155-.617v-.14c.002-.26.054-.462.156-.603a.496.496 0 0 1 .427-.214c.186 0 .33.072.43.214z"/>
    </symbol>
    <symbol id="telegram" viewBox="0 0 32 32">
      <path fill="#fff" style="fill:var(--color1, #fff)" d="M32 0 0 18l10.227 3.788L26 7 14.002 23.186l.01.004-.012-.004V32l5.735-6.691L27 28l5-28z"/>
    </symbol>
    <symbol id="person" viewBox="0 0 32 32">
      <path d="M16 16c2.947 0 5.333-2.387 5.333-5.333S18.946 5.334 16 5.334c-2.947 0-5.333 2.387-5.333 5.333S13.054 16 16 16zm0 2.667c-3.56 0-10.667 1.787-10.667 5.333v1.333c0 .733.6 1.333 1.333 1.333h18.667c.733 0 1.333-.6 1.333-1.333V24c0-3.547-7.107-5.333-10.667-5.333z"/>
    </symbol>
    <symbol id="phone-black" viewBox="0 0 32 32">
      <path d="m24.882 19.773-3.268-.373a2.561 2.561 0 0 0-2.11.733L17.137 22.5a19.357 19.357 0 0 1-8.478-8.478l2.38-2.38a2.561 2.561 0 0 0 .733-2.11l-.373-3.242a2.575 2.575 0 0 0-2.56-2.277H6.613c-1.454 0-2.663 1.209-2.573 2.663.682 10.987 9.469 19.761 20.443 20.443 1.454.09 2.663-1.119 2.663-2.573V22.32a2.549 2.549 0 0 0-2.264-2.547z"/>
    </symbol>
    <symbol id="checkbox" viewBox="0 0 42 32">
      <path fill="#fff" style="fill:var(--color1, #fff);stroke:var(--color1, #fff)" stroke="#fff" stroke-width=".64" d="m6.263 15.205-.22-.21-3.307 3.132 11.651 11.114L38.864 5.89l-3.285-3.134-21.192 20.197-8.124-7.75z"/>
    </symbol>
    <symbol id="email" viewBox="0 0 32 32">
      <path d="M26.667 5.333H5.334A2.663 2.663 0 0 0 2.681 8l-.013 16c0 1.467 1.2 2.667 2.667 2.667h21.333c1.467 0 2.667-1.2 2.667-2.667V8c0-1.467-1.2-2.667-2.667-2.667zM26.133 11l-9.427 5.893a1.346 1.346 0 0 1-1.413 0L5.866 11a1.132 1.132 0 1 1 1.2-1.92l8.933 5.587 8.933-5.587a1.132 1.132 0 1 1 1.2 1.92z"/>
    </symbol>
    <symbol id="close" viewBox="0 0 32 32">
      <path fill="#fff" style="fill:var(--color1, #fff)" d="M32 16c0 8.837-7.163 16-16 16S0 24.837 0 16 7.163 0 16 0s16 7.163 16 16z"/>
      <path fill="none" stroke="#000" style="stroke:var(--color2, #999999)" stroke-width="1.067" d="M31.467 16c0 8.542-6.925 15.467-15.467 15.467S.533 24.542.533 16C.533 7.458 7.458.533 16 .533S31.467 7.458 31.467 16z"/>
      <path d="M22.4 10.782 21.218 9.6l-4.685 4.685L11.848 9.6l-1.182 1.182 4.685 4.685-4.685 4.685 1.182 1.182 4.685-4.685 4.685 4.685 1.182-1.182-4.685-4.685 4.685-4.685z"/>
    </symbol>
    <symbol id="close_40px" viewBox="0 0 32 32">
      <path d="M23.733 10.304 22.229 8.8l-5.963 5.963L10.303 8.8l-1.504 1.504 5.963 5.963-5.963 5.963 1.504 1.504 5.963-5.963 5.963 5.963 1.504-1.504-5.963-5.963 5.963-5.963z"/>
    </symbol>
    <symbol id="menu_40px" viewBox="0 0 32 32">
      <path d="M6.4 11.733V9.6h19.2v2.133H6.4zm0 5.334h19.2v-2.133H6.4v2.133zm0 5.333h19.2v-2.133H6.4V22.4z"/>
    </symbol>
  </defs>
</svg>
