<!-- Generated by IcoMoon.io -->
<svg version="1.1" xmlns="http://www.w3.org/2000/svg" width="57" height="32" viewBox="0 0 57 32">
<title>foster</title>
<path fill="#2196f3" d="M10.974 8.386h-0.002c-1.535 0-2.779 1.106-2.779 2.47v0.002c0 1.364 1.244 2.47 2.779 2.47h0.002c1.535 0 2.779-1.106 2.779-2.47v-0.002c0-1.364-1.244-2.47-2.779-2.47z"></path>
<path fill="#2196f3" d="M31.485 7.596c-0.004-1.894-0.853-3.71-2.36-5.050s-3.55-2.094-5.682-2.099v0c-2.132 0.003-4.176 0.758-5.684 2.097s-2.357 3.156-2.361 5.051v10.447c0 0 16.085-1.592 16.087-10.445v-0.002z"></path>
<path fill="#2196f3" d="M2.56 21.472c0.004 1.318 0.595 2.581 1.643 3.514s2.47 1.458 3.953 1.462c1.483-0.004 2.904-0.529 3.952-1.461s1.64-2.195 1.644-3.512v-7.269c0 0-11.193 1.109-11.193 7.267zM8.156 22.774c-0.29 0-0.573-0.076-0.814-0.219s-0.429-0.346-0.54-0.584c-0.111-0.238-0.14-0.5-0.083-0.752s0.196-0.485 0.401-0.667c0.205-0.182 0.466-0.306 0.75-0.356s0.579-0.024 0.847 0.074c0.268 0.099 0.497 0.266 0.658 0.48s0.247 0.466 0.247 0.724c0.001 0.171-0.037 0.341-0.11 0.5s-0.181 0.303-0.317 0.424c-0.136 0.121-0.298 0.218-0.476 0.284s-0.369 0.1-0.562 0.1v-0.005z"></path>
<path fill="#2196f3" d="M19.467 22.057h-1.080v1.116h-0.563v-2.73h1.777v0.456h-1.215v0.705h1.080v0.454zM22.171 21.869c0 0.269-0.047 0.504-0.143 0.707s-0.231 0.359-0.409 0.469c-0.176 0.11-0.379 0.165-0.608 0.165-0.226 0-0.428-0.054-0.606-0.163s-0.315-0.264-0.412-0.465c-0.097-0.203-0.147-0.435-0.148-0.698v-0.135c0-0.269 0.048-0.505 0.144-0.709 0.098-0.205 0.234-0.362 0.411-0.471 0.178-0.11 0.38-0.165 0.608-0.165s0.429 0.055 0.606 0.165c0.177 0.109 0.314 0.266 0.411 0.471 0.097 0.204 0.146 0.439 0.146 0.707v0.122zM21.601 21.746c0-0.286-0.051-0.504-0.154-0.652s-0.249-0.223-0.439-0.223c-0.189 0-0.334 0.074-0.437 0.221-0.102 0.146-0.154 0.361-0.156 0.645v0.133c0 0.279 0.051 0.495 0.154 0.649s0.25 0.231 0.442 0.231c0.189 0 0.334-0.074 0.435-0.221 0.101-0.149 0.152-0.365 0.154-0.649v-0.133zM23.995 22.456c0-0.106-0.038-0.188-0.113-0.244-0.075-0.057-0.21-0.117-0.405-0.18-0.195-0.064-0.349-0.126-0.463-0.188-0.31-0.168-0.465-0.393-0.465-0.677 0-0.148 0.041-0.279 0.124-0.394 0.084-0.116 0.203-0.207 0.358-0.272 0.156-0.065 0.331-0.097 0.525-0.097 0.195 0 0.369 0.036 0.521 0.107 0.152 0.070 0.271 0.169 0.354 0.298 0.085 0.129 0.128 0.275 0.128 0.439h-0.563c0-0.125-0.039-0.222-0.118-0.291-0.079-0.070-0.189-0.105-0.332-0.105-0.138 0-0.244 0.029-0.321 0.088-0.076 0.057-0.114 0.134-0.114 0.229 0 0.089 0.044 0.163 0.133 0.223 0.090 0.060 0.222 0.116 0.396 0.169 0.32 0.096 0.553 0.216 0.699 0.358s0.219 0.32 0.219 0.532c0 0.236-0.089 0.422-0.268 0.557-0.179 0.134-0.419 0.201-0.722 0.201-0.21 0-0.401-0.038-0.574-0.114-0.172-0.078-0.304-0.183-0.396-0.317-0.090-0.134-0.135-0.289-0.135-0.465h0.564c0 0.301 0.18 0.452 0.54 0.452 0.134 0 0.238-0.027 0.313-0.081 0.075-0.055 0.113-0.131 0.113-0.229zM26.997 20.898h-0.836v2.274h-0.563v-2.274h-0.825v-0.456h2.224v0.456zM28.962 21.989h-1.080v0.731h1.268v0.452h-1.83v-2.73h1.826v0.456h-1.264v0.651h1.080v0.441zM30.49 22.173h-0.448v0.999h-0.563v-2.73h1.014c0.323 0 0.571 0.072 0.746 0.216s0.262 0.347 0.262 0.609c0 0.186-0.041 0.342-0.122 0.467-0.080 0.124-0.202 0.223-0.366 0.296l0.591 1.116v0.026h-0.604l-0.512-0.999zM30.042 21.717h0.454c0.141 0 0.251-0.036 0.328-0.107 0.078-0.073 0.116-0.172 0.116-0.298 0-0.129-0.037-0.23-0.111-0.304-0.073-0.074-0.184-0.111-0.336-0.111h-0.452v0.819zM33.451 22.211v0.962h-0.563v-2.73h1.065c0.205 0 0.385 0.038 0.54 0.113 0.156 0.075 0.276 0.182 0.36 0.321 0.084 0.138 0.126 0.294 0.126 0.471 0 0.268-0.092 0.479-0.276 0.634-0.183 0.154-0.436 0.231-0.759 0.231h-0.493zM33.451 21.755h0.502c0.149 0 0.262-0.035 0.339-0.105 0.079-0.070 0.118-0.17 0.118-0.3 0-0.134-0.039-0.242-0.118-0.324s-0.188-0.125-0.326-0.128h-0.516v0.857zM37.010 21.989h-1.080v0.731h1.268v0.452h-1.83v-2.73h1.826v0.456h-1.264v0.651h1.080v0.441zM39.62 20.898h-0.836v2.274h-0.563v-2.274h-0.825v-0.456h2.224v0.456zM41.585 21.989h-1.080v0.731h1.267v0.452h-1.83v-2.73h1.826v0.456h-1.264v0.651h1.080v0.441zM43.113 22.173h-0.448v0.999h-0.563v-2.73h1.014c0.322 0 0.571 0.072 0.746 0.216s0.263 0.347 0.263 0.609c0 0.186-0.041 0.342-0.122 0.467-0.080 0.124-0.202 0.223-0.366 0.296l0.591 1.116v0.026h-0.604l-0.512-0.999zM42.665 21.717h0.454c0.141 0 0.251-0.036 0.328-0.107 0.078-0.073 0.116-0.172 0.116-0.298 0-0.129-0.037-0.23-0.111-0.304-0.072-0.074-0.184-0.111-0.336-0.111h-0.452v0.819zM45.97 22.456c0-0.106-0.038-0.188-0.112-0.244-0.075-0.057-0.21-0.117-0.405-0.18-0.195-0.064-0.349-0.126-0.463-0.188-0.31-0.168-0.465-0.393-0.465-0.677 0-0.148 0.041-0.279 0.124-0.394 0.084-0.116 0.203-0.207 0.358-0.272 0.156-0.065 0.331-0.097 0.525-0.097 0.195 0 0.369 0.036 0.521 0.107 0.153 0.070 0.271 0.169 0.354 0.298 0.085 0.129 0.127 0.275 0.127 0.439h-0.563c0-0.125-0.039-0.222-0.118-0.291-0.079-0.070-0.189-0.105-0.332-0.105-0.137 0-0.244 0.029-0.321 0.088-0.076 0.057-0.114 0.134-0.114 0.229 0 0.089 0.044 0.163 0.133 0.223 0.090 0.060 0.222 0.116 0.396 0.169 0.32 0.096 0.553 0.216 0.699 0.358s0.219 0.32 0.219 0.532c0 0.236-0.089 0.422-0.268 0.557-0.179 0.134-0.419 0.201-0.722 0.201-0.21 0-0.401-0.038-0.574-0.114-0.173-0.078-0.304-0.183-0.396-0.317-0.090-0.134-0.135-0.289-0.135-0.465h0.564c0 0.301 0.18 0.452 0.54 0.452 0.134 0 0.238-0.027 0.313-0.081 0.075-0.055 0.112-0.131 0.112-0.229z"></path>
</svg>
